<?xml version="1.0" ?><svg style="enable-background:new 0 0 512 512;" version="1.1" viewBox="0 0 512 512" xml:space="preserve" xmlns="http://www.w3.org/2000/svg" xmlns:xlink="http://www.w3.org/1999/xlink"><style type="text/css">
	.st0{fill:#1E1E1E;}
	.st1{fill:#464646;stroke:#21759B;stroke-width:2;stroke-miterlimit:10;}
	.st2{fill:#FFFFFF;}
</style><g id="Edges"/><g id="Background_Bottom"><g><path class="st0" d="M492.3,443.1c0,34.2-27.7,61.9-61.9,61.9H80.7c-34.2,0-61.9-27.7-61.9-61.9V93.4c0-34.2,27.7-61.9,61.9-61.9    h349.7c34.2,0,61.9,27.7,61.9,61.9V443.1z"/></g></g><g id="Background"><path class="st1" d="M492.3,418.4c0,34.2-27.7,61.9-61.9,61.9H80.7c-34.2,0-61.9-27.7-61.9-61.9V68.6c0-34.2,27.7-61.9,61.9-61.9   h349.7c34.2,0,61.9,27.7,61.9,61.9V418.4z"/></g><g id="Symbol"><g><path class="st2" d="M386.9,381c-18.6,0-37.1,0-56,0c0-1.1,0-2,0-2.9c0-28.6,0-57.2,0-85.9c0-6.6-0.5-13.2-2.4-19.6    c-2.4-8.2-6.8-15-15.3-18.1c-12-4.4-26.1-1.1-34.2,9.5c-4.5,5.9-7.2,12.3-7.1,19.8c0.1,2.5-0.1,5-0.1,7.5c0,29,0,57.9,0,86.9    c0,2.8,0,2.8-2.7,2.8c-17,0-34,0-51,0c-2,0-2.5-0.6-2.5-2.6c0.2-39.3,0.3-78.6,0.4-117.8c0-14.4-0.1-28.8-0.2-43.2    c0-1.6,0-3.2,0-5c0.8,0,1.5,0,2.3,0c17.1,0,34.1,0,51.2,0c2,0,2.6,0.5,2.6,2.5c-0.1,6.1,0,12.1,0,18.2c0,0.7,0,1.5,0.4,2.4    c1.3-1.7,2.6-3.5,3.9-5.2c10.4-13.6,24.3-20.6,41.3-21.6c10.3-0.6,20.3,0.5,30,4.2c9.2,3.5,17,9.1,23.2,16.8    c9.5,11.8,13.7,25.6,15.4,40.4c0.3,2.3,0.6,4.7,0.9,7C386.9,311.6,386.9,346.3,386.9,381z"/><path class="st2" d="M125.3,156.2c0.5-1.9,1-3.7,1.6-5.6c2.9-8.3,8.4-14,16.6-17c10.1-3.8,20.3-3.7,29.9,1.3    c11.4,6,16.9,18.1,14.3,31c-2.1,11-8.9,18.2-19.5,21.5c-9.3,2.9-18.5,2.6-27.4-1.7c-8.5-4.2-13.2-11.2-15.1-20.3    c-0.1-0.5-0.3-0.9-0.4-1.3C125.3,161.5,125.3,158.8,125.3,156.2z"/><path class="st2" d="M184.6,381c-0.9,0-1.5,0-2.1,0c-17.1,0-34.3,0-51.4,0c-2,0-2.4-0.6-2.4-2.5c0-54.6,0-109.2,0-163.8    c0-0.7,0-1.4,0-2.2c18.7,0,37.3,0,55.9,0C184.6,268.7,184.6,324.7,184.6,381z"/></g></g></svg>