<?xml version="1.0" ?><svg style="enable-background:new 0 0 512 512;" version="1.1" viewBox="0 0 512 512" xml:space="preserve" xmlns="http://www.w3.org/2000/svg" xmlns:xlink="http://www.w3.org/1999/xlink"><style type="text/css">
	.st0{fill:#1E1E1E;}
	.st1{fill:#464646;stroke:#21759B;stroke-width:2;stroke-miterlimit:10;}
	.st2{fill:#FFFFFF;}
</style><g id="Edges"/><g id="Background_Bottom"><g><path class="st0" d="M492.3,443.1c0,34.2-27.7,61.9-61.9,61.9H80.7c-34.2,0-61.9-27.7-61.9-61.9V93.4c0-34.2,27.7-61.9,61.9-61.9    h349.7c34.2,0,61.9,27.7,61.9,61.9V443.1z"/></g></g><g id="Background"><path class="st1" d="M492.3,418.4c0,34.2-27.7,61.9-61.9,61.9H80.7c-34.2,0-61.9-27.7-61.9-61.9V68.6c0-34.2,27.7-61.9,61.9-61.9   h349.7c34.2,0,61.9,27.7,61.9,61.9V418.4z"/></g><g id="Symbol"><path class="st2" d="M393.2,170.5c-10.1,4.5-21,7.5-32.5,8.9c11.7-7,20.6-18.1,24.9-31.2c-10.9,6.5-23,11.2-35.9,13.7   c-10.3-11-25-17.8-41.3-17.8c-31.2,0-56.5,25.3-56.5,56.5c0,4.4,0.5,8.7,1.5,12.9c-47-2.4-88.6-24.9-116.5-59   c-4.9,8.3-7.6,18.1-7.6,28.4c0,19.6,10,36.9,25.1,47c-9.3-0.3-18-2.8-25.6-7.1c0,0.2,0,0.5,0,0.7c0,27.4,19.5,50.2,45.3,55.4   c-4.7,1.3-9.7,2-14.9,2c-3.6,0-7.2-0.4-10.6-1c7.2,22.4,28.1,38.8,52.8,39.2c-19.3,15.1-43.7,24.2-70.2,24.2   c-4.6,0-9.1-0.3-13.5-0.8c25,16,54.7,25.4,86.6,25.4c103.9,0,160.7-86.1,160.7-160.7c0-2.4-0.1-4.9-0.2-7.3   C376.1,191.8,385.7,181.9,393.2,170.5z"/></g></svg>